<svg xmlns="http://www.w3.org/2000/svg" viewBox="0 0 64 64" role="img" aria-label="PawContact">
  <rect width="64" height="64" rx="14" fill="#6B4423"/>
  <g fill="#F5F0E6">
    <ellipse cx="13.5" cy="28" rx="6" ry="8" transform="rotate(-22 13.5 28)"/>
    <ellipse cx="25.5" cy="19.5" rx="6.2" ry="8.6" transform="rotate(-8 25.5 19.5)"/>
    <ellipse cx="38.5" cy="19.5" rx="6.2" ry="8.6" transform="rotate(8 38.5 19.5)"/>
    <ellipse cx="50.5" cy="28" rx="6" ry="8" transform="rotate(22 50.5 28)"/>
    <path d="M32 33c9.8 0 17.5 5 17.5 11.6C49.5 51.4 41.8 56 32 56s-17.5-4.6-17.5-11.4C14.5 38 22.2 33 32 33Z"/>
  </g>
  <path d="M32 52.2s-8.2-5-8.2-9.6c0-2.6 2-4.2 4.1-4.2 2 0 3.3 1.3 4.1 2.5.8-1.2 2.1-2.5 4.1-2.5 2.1 0 4.1 1.6 4.1 4.2 0 4.6-8.2 9.6-8.2 9.6Z" fill="#6B4423"/>
</svg>
